<svg xmlns="http://www.w3.org/2000/svg" viewBox="0 0 393.8 68.3"><path d="M36.5 18.5h-9.3v-1.8h20.4v1.8h-9.3V45h-1.9V18.5h.1zm14.8-1.7h1.8v11.5c2.2-2.1 4.8-3.7 7.7-3.7 4.2 0 6.1 2.3 6.1 5.9V45h-1.8V30.7c0-3-1.3-4.5-4.4-4.5-2.8 0-5.1 1.4-7.6 3.8v15h-1.8V16.8zm19.8 18.1c0-6.9 4.2-10.4 8.5-10.4 4.7 0 7.9 4 7.9 10.2v.3H72.9c0 5.4 3 8.7 6.7 8.7 3.1 0 4.9-1.5 6.4-4.1l1.3.8c-1.6 3-4 4.9-7.9 4.9-4.4.1-8.3-3.8-8.3-10.4zm14.5-1.4c-.3-4.1-2.2-7.4-6.1-7.4-3.1 0-6.1 2.4-6.6 7.4h12.7zm11.2-16.7h1.9l4.7 18.1c.7 2.7 1.4 5.4 1.8 7.3h.1c.4-1.8 1-4.6 1.7-7.2l4.5-18.1h2.2l4.5 18.3c.6 2.6 1.3 5.1 1.7 7.1h.1c.5-2.2 1.1-4.4 1.7-6.9l4.8-18.4h1.9l-7.5 28H119l-6.3-25.5h-.1L106.2 45h-1.9l-7.5-28.2zM128.5 35c0-6.4 3.8-10.4 8.8-10.4 4.9 0 8.8 4 8.8 10.4s-3.9 10.4-8.8 10.4-8.8-4.1-8.8-10.4zm15.8-.1c0-4.6-2.4-8.8-7-8.8-4.3 0-7 3.8-7 8.8 0 4.7 2.4 8.8 7 8.8 4.3.1 7-3.7 7-8.8zm6.1-9.9h1.8v4.2h.1c1.7-2.6 4.2-4.6 8.2-4.6h.5l-.3 1.7h-.6c-3.4 0-6.2 2-7.9 5.5V45h-1.8V25zm13.8-8.2h1.8v19.5L176.4 25h2.3l-6.5 7 7.4 13h-2.1l-6.7-11.6-4.8 5.1V45h-1.8V16.8zm18.9.8h2v2.3h-2v-2.3zm.1 7.4h1.8v20h-1.8V25zm7.5 0h1.8v3.3c2.2-2.1 4.8-3.7 7.7-3.7 4.1 0 6.1 2.3 6.1 5.9V45h-1.8V30.7c0-3-1.3-4.5-4.4-4.5-2.8 0-5.1 1.4-7.6 3.8v15h-1.8V25zm18.7 22.6c0-2.1 1.4-3.7 3.8-4.7-1.3-.5-1.9-1.3-1.9-2.6 0-1.1.9-2.1 2.3-2.7-1.8-1.2-3-3.2-3-5.7 0-4.3 3.4-7.2 7.7-7.2 2.2 0 4.1.7 5.5 2.1 1.1-.8 2.9-1.6 4.5-1.8v2c-1.3 0-2.7.2-3.7.7.9 1.1 1.4 2.6 1.4 4.3 0 4.5-3.5 7.1-7.7 7.1-1.2 0-2.4-.2-3.4-.6-1.1.4-1.8 1-1.8 1.9s.8 1.4 3.2 1.6l4.7.4c4.1.4 6.6 2 6.6 4.9 0 3.5-3.7 5.4-8.9 5.4-6.3-.1-9.3-2-9.3-5.1zm16.4-.3c0-2.1-1.7-3.2-5.6-3.5l-4.2-.3-1-.1c-2.6.8-3.9 2.4-3.9 4.1 0 2.2 2.3 3.7 7.7 3.7 4.4-.1 7-1.7 7-3.9zm-1.6-15.5c0-3.4-2.2-5.7-5.9-5.7-3.6 0-5.9 2.3-5.9 5.7 0 3.3 2.4 5.6 5.9 5.6s5.9-2.3 5.9-5.6zm22.1-15.1h2.2l10 28.3h-2l-3.3-9.4h-11.7l-3.3 9.4h-1.9l10-28.3zm6.3 17.1l-5.2-15h-.1l-5.2 15h10.5zm7.9 7.8l1.3-1c1.5 1.9 3.4 3.1 6.2 3.1 3.8 0 5.7-1.5 5.7-4 0-2.4-1.4-3.5-5.9-4.5-5.1-1.3-6.7-2.6-6.7-5.7 0-2.6 2.3-5 6.6-5 3.2 0 5.4 1.2 7.1 2.9l-1.2 1.3c-1.5-1.6-3.2-2.6-5.9-2.6-3.3 0-4.7 1.6-4.7 3.3 0 2.1 1.1 3 5.1 4 5.6 1.4 7.6 2.7 7.6 6.3 0 3.4-3.1 5.6-7.6 5.6-3.6 0-6.1-1.6-7.6-3.7zm17.7 0l1.3-1c1.5 1.9 3.3 3.1 6.2 3.1 3.8 0 5.7-1.5 5.7-4 0-2.4-1.4-3.5-5.9-4.5-5.1-1.3-6.7-2.6-6.7-5.7 0-2.6 2.3-5 6.6-5 3.2 0 5.4 1.2 7.1 2.9l-1.2 1.3c-1.5-1.6-3.2-2.6-5.9-2.6-3.3 0-4.7 1.6-4.7 3.3 0 2.1 1.1 3 5.1 4 5.6 1.4 7.6 2.7 7.6 6.3 0 3.4-3.1 5.6-7.6 5.6-3.6 0-6.1-1.6-7.6-3.7zm17.9-6.6c0-6.9 4.2-10.4 8.5-10.4 4.7 0 7.9 4 7.9 10.2v.3h-14.6c0 5.4 3 8.7 6.7 8.7 3.1 0 4.9-1.5 6.4-4.2l1.3.8c-1.6 3-4 4.9-7.9 4.9-4.3.1-8.3-3.7-8.3-10.3zm14.6-1.4c-.3-4.1-2.2-7.4-6.1-7.4-3.1 0-6.1 2.4-6.6 7.4h12.7zm6.2-8.6h1.8v3.3c2.2-2.1 4.6-3.7 7.5-3.7 3.4 0 5 1.6 5.6 3.8 2.3-2.1 4.8-3.8 7.7-3.8 4.1 0 5.8 2.3 5.8 5.9V45h-1.8V30.7c0-3-1.1-4.5-4.1-4.5-2.6 0-4.8 1.4-7.3 3.8v15h-1.8V30.7c0-3-1.1-4.5-4.1-4.5-2.6 0-4.8 1.4-7.3 3.8v15h-1.8V25h-.2zm34.3 17v3h-1.8V16.8h1.8V28c1.7-1.9 3.8-3.4 6.8-3.4 4.6 0 8.4 3.4 8.4 10.4s-3.8 10.4-8.5 10.4c-2.7-.1-4.8-1.5-6.7-3.4zm13.4-7c0-6.1-3.1-8.8-6.6-8.8-2.7 0-4.5 1.3-6.8 3.6v10.4c2.2 2.3 4.3 3.6 6.9 3.6 3.5-.1 6.5-2.7 6.5-8.8zm6.4-18.2h1.8V45H371V16.8zm4.9 35.4l.5-1.5c.6.2 1.3.3 2.5.3 2.4 0 3.6-1.1 4.5-3.4l.9-2.5-7.8-20.1h2l6.6 17.8h.1l6.6-17.8h2l-8.6 22.4c-1.4 3.6-2.8 5.3-6.6 5.3-1.2-.1-2-.2-2.7-.5z" fill="#231f20"/></svg>