<svg xmlns="http://www.w3.org/2000/svg" viewBox="0 0 68.3 68.3"><circle cx="34.2" cy="34.2" r="34.2" fill="#231f20"/><path d="M20.3 54.2c-.1 0-.2 0-.3-.1-.4-.2-.6-.7-.5-1.1l4.1-10.5c.1-.3.4-.5.8-.5h19c.3 0 .6.2.8.5L48.8 53c.2.4 0 .9-.4 1.1-.4.2-.9 0-1.1-.4l-4.3-10H25.1l-3.9 10c-.2.3-.5.5-.9.5zm6.3-16.8c-.3 0-.6-.2-.8-.5l-8.3-18.5c-.2-.4 0-.9.4-1.1.4-.2.9 0 1.1.4l7.5 16.7 6.8-16.7c.1-.3.4-.5.8-.5s.6.2.8.5l7 16.7 7.4-16.7c.2-.4.7-.6 1.1-.4.4.2.6.7.4 1.1l-8.2 18.5c-.1.3-.4.5-.8.5-.3 0-.6-.2-.8-.5l-7-16.6-6.8 16.6c0 .3-.3.5-.6.5z" fill="#fff"/></svg>