<svg version="1.1" id="Layer_1" xmlns="http://www.w3.org/2000/svg" x="0" y="0" viewBox="0 0 63.4 63.6" xml:space="preserve"><style>.st0{fill:#fff}</style><g id="Layer_2_1_"><g id="Layer_1-2"><path class="st0" d="M63.4 31.8c0 17.5-14.2 31.7-31.7 31.8h-.2C14.2 63.5-.2 49.3 0 31.4.2 13.9 14.5-.1 32 0c17.2.1 31.4 14.4 31.4 31.8zm-2.4 0C61 15.6 47.9 2.5 31.9 2.4c-16.2-.1-29.6 13-29.5 29.5 0 16.2 13.2 29.4 29.3 29.4C47.9 61.2 61 48 61 31.8z"/><path class="st0" d="M54.8 6c0-1.6 1.3-2.9 2.8-2.9h.1c1.6 0 2.9 1.3 2.9 2.9s-1.3 2.9-2.9 2.9c-1.6 0-2.9-1.3-2.9-2.9zm2.9 2.4c1.3 0 2.4-1 2.4-2.3V6c0-1.4-1-2.4-2.4-2.4-1.3 0-2.4 1.1-2.4 2.4 0 1.3 1.1 2.4 2.4 2.4zM32.2 51.5h-2.8c-.2 0-.4-.2-.6-.4-3.4-4.4-6.9-8.8-10.3-13.2-.6-.8-1.2-1.5-1.8-2.2v15.8h-2.8c-.1 0-.2-.2-.3-.3V31.1c0-.6.2-.7.8-.8 1.7-.2 2.7.4 3.7 1.8 3.4 4.6 7.1 9.1 10.6 13.7.1.2.3.3.5.4V31.1c0-.6.2-.8.8-.7h1.6c.6-.1.8.1.8.7v19.6c-.2.3-.2.5-.2.8zm3-21.1h3.5c.2 0 .3.2.5.4 1.9 2.7 3.8 5.3 5.7 8 .1.2.2.3.4.5.9-1.2 1.7-2.4 2.6-3.6 1.2-1.6 2.3-3.3 3.5-4.9.2-.2.5-.4.8-.4h2.7c.2 0 .3 0 .6.1-.5.7-.9 1.3-1.3 1.8-2.4 3.2-4.7 6.5-7 9.7-.2.3-.3.6-.3.9v8.6h-2.8c-.4 0-.3-.3-.3-.6v-7.7c0-.6-.2-1.1-.5-1.5-2.5-3.5-5-7.1-7.6-10.7-.2-.1-.3-.3-.5-.6zM19.7 12.8v3.4L16.5 15l-.1.1 2 3-1 .7-3.4-4.9c.6-.8.9-.8 1.7-.5l2.7 1v-2.8c0-1 .1-1.1 1.1-1.5.3.5.7 1 1 1.4.7 1 1.4 2.1 2.1 3.1.3.4 0 .6-.3.8s-.5.3-.8-.1c-.4-.7-.9-1.3-1.3-2-.1-.2-.3-.4-.4-.6l-.1.1zm13.6.4l1.3-6c1.3.3 2.6.5 3.9 1 1.6.5 2.1 1.9 1.6 3.6-.4 1.6-1.7 2.4-3.3 2.2-1.1-.3-2.2-.6-3.5-.8zm1.5-.9c1 .2 1.8.4 2.7.4.8 0 1.3-.5 1.5-1.4.2-.9 0-1.6-.7-1.9-.9-.3-1.8-.5-2.7-.8l-.8 3.7zm10.5.1l-.6.9 1.7 1.3-.7 1-1.7-1.3-.8 1 3.5 2.5-.7 1-4.5-3.2 3.5-5 4.4 3.1-.7 1-3.4-2.3zm-14.1 6.9c.8-.2 1.2 0 1.7.6.8 1.1 1.7 2.2 2.7 3.2V20c0-.7.3-.9.9-.7.1 0 .2.1.2.3v5.6c-.7.1-1.2.1-1.7-.5-.7-1-1.5-1.9-2.2-2.8l-.5-.5v3.9h-1.2l.1-6zm.6-6.3c-.4.1-.6.1-.9.2-.4.1-.6-.1-.8-.4-.3-.6-.7-.7-1.3-.5-.7.2-1.4.3-2.2.4-.4.1-.6.2-.7.6-.2 1-.4 1-1.6 1 .3-1 .5-2 .8-3s.6-1.9.8-2.9c.1-.4.3-.5.7-.6.9-.3 1.3.1 1.8.8.9 1.3 1.9 2.6 2.8 3.9.3 0 .4.2.6.5zm-3-2.1l-1.5-2.1-.7 2.5 2.2-.4zm-.7 14.3H27v-5.9h.5c.5-.1.6.1.6.6v5.3z"/><path class="st0" d="M58.2 6.2l.8 1.3c-.5.3-.7 0-.8-.4-.3-.4-.4-1-1.2-.8v1c0 .1-.1.2-.2.2s-.3-.1-.3-.2V4.4h1.3c.5 0 1 .1 1.1.7.1.6-.2.9-.7 1.1zM57 4.8v1.1c.4-.1.8-.2 1.2-.4.1 0 .1-.4 0-.4-.3-.1-.7-.2-1.2-.3z"/></g></g></svg>